<?xml version="1.0" encoding="UTF-8" standalone="no"?>
<svg
   xml:space="preserve"
   width="777"
   height="352"
   version="1.2"
   id="svg66"
   sodipodi:docname="Architecture01-optimized.svg"
   inkscape:version="1.2 (dc2aedaf03, 2022-05-15)"
   xmlns:inkscape="http://www.inkscape.org/namespaces/inkscape"
   xmlns:sodipodi="http://sodipodi.sourceforge.net/DTD/sodipodi-0.dtd"
   xmlns="http://www.w3.org/2000/svg"
   xmlns:svg="http://www.w3.org/2000/svg"><defs
     id="defs70" /><sodipodi:namedview
     id="namedview68"
     pagecolor="#ffffff"
     bordercolor="#000000"
     borderopacity="0.25"
     inkscape:showpageshadow="2"
     inkscape:pageopacity="0.0"
     inkscape:pagecheckerboard="0"
     inkscape:deskcolor="#d1d1d1"
     showgrid="false"
     inkscape:zoom="1.3409091"
     inkscape:cx="378.84746"
     inkscape:cy="186.0678"
     inkscape:window-width="1440"
     inkscape:window-height="830"
     inkscape:window-x="-6"
     inkscape:window-y="-6"
     inkscape:window-maximized="1"
     inkscape:current-layer="svg66" /><path
     fill="none"
     stroke="#535180"
     stroke-dasharray="4.289 2.144 1.072 2.144"
     stroke-opacity=".988"
     stroke-width="1.072"
     d="M3.204 5.036h771.01v342.928H3.204z"
     id="path2" /><path
     fill="#92b67a"
     d="M127.81 110.19q4.16 3.74 4.17 9.06.02 46.56.02 93.12 0 10.1-.24 11.23-1.24 5.98-7 9.66-4.97 3.18-10.56 5.09-17.58 6.02-35.95 6.22-10.48.11-19.96-1.2-11.15-1.53-21.78-5.55-9.14-3.45-14.2-9.88-2.61-3.32-2.41-8.35.1-2.62.1-2.69.13-47.1-.16-94.2-.04-5.6.97-8.14 1.59-3.99 5.35-6.66 4.98-3.53 10.72-5.65 16.37-6.05 33.61-6.63 10.3-.34 19.99.66 11.43 1.17 22.41 4.95 8.04 2.77 14.92 8.96zm-12.37 5.41a39.45 11.92 0 0 0-39.45-11.92 39.45 11.92 0 0 0-39.45 11.92 39.45 11.92 0 0 0 39.45 11.92 39.45 11.92 0 0 0 39.45-11.92Zm-57.6 50.15.06-4.57a.76.6 9 0 0-.57-.62q-5.81-1.44-11.75-.41-5.39.93-7.27 4.91-3.04 6.44 2.01 10.6.93.77 4.09 2.29 2.13 1.03 4.11 2.33a1.29 1.16 12.9 0 1 .54.77q.6 2.96-2.56 2.95-3.41-.01-8.12-2.57a.33.31 15.8 0 0-.49.25l-.11 6.76a.78.7 11.3 0 0 .51.68q8.09 3.04 16.06-.4 4.55-1.96 4.94-6.97.35-4.49-3.14-7.14-1.91-1.45-7.15-3.86-3.35-1.54-1.38-3.41.95-.9 2.54-.96 3.64-.12 6.91 1.63a.6.52 29.9 0 0 .75-.15q.34-.54.14-1.16-.12-.39-.12-.95zm25.85 23.79a.35.34 48.8 0 1 .03-.56q6.08-3.75 7.44-9.9 1.63-7.4-1.99-13-2.6-4.02-7.09-5.61-4.66-1.66-9.58-.22-7.65 2.24-9.98 8.91-2.12 6.05.01 12.17 2.66 7.68 12.16 9.16a1.48 1.37 70.7 0 1 .83.44l6.44 6.66a1.07 1.18 69.8 0 0 .85.34l9.41-.19q1.22-.02.3-.79zm21.61-7.1-.48-21.75a.55.51 89.4 0 0-.51-.54l-7.75-.11a.49.53.5 0 0-.5.53L96 189.38a.88.87 0 0 0 .88.87h17.96a.51.49 89.4 0 0 .49-.52l-.09-5.86a.88.89 0 0 0-.87-.88l-8.56-.04a.52.51 89.4 0 1-.51-.51z"
     id="path4" /><path
     fill="#3d5567"
     d="m398.61 160.79 6.22.17q1.3.03.6 1.05-1.24 1.79-2.89 3.54-8.05 8.62-15.38 17.86-.27.34-.51.49-.68.43-.63-.5.02-.29.18-.65 2.82-6.5 5.84-13.69a.63.7 12.4 0 0-.55-.96l-5.19-.01a1.13 1.01 7.9 0 1-1.12-1.32l11.75-36.8a1.74 1.69 11.9 0 1 1.84-1.16q5.92.66 11.8 3.38 2.31 1.07 1.08 3.27l-13.55 24.23a.67.75 17.2 0 0 .51 1.1z"
     id="path6" /><path
     fill="#3d5567"
     d="M417.83 154.63q1.51 1.72 2.84 1.48 6.51-1.2 7.16 5.45a1.64 1.63 77 0 1-1.05 1.69q-1.79.66-3.54 1.6-2.06 1.1-2.35 2.78-.42 2.39 2.17 3.81 3.1 1.7 4.49 2.8a.81.74 28.4 0 1 .29.82l-1.46 4.91a.95.81 0 0 1-.68.58q-2.66.61-5.39.57-1.59-.03-2.37.47-1.3.82-1.37 2.23-.06 1.01 1.23 2.92.98 1.46 1.82 3.4a1.79 1.78 50.8 0 1-.17 1.72q-1.57 2.3-3.76 3.64a.86.84 44.4 0 1-.87 0l-5.65-3.25a1.17 1.08 50.2 0 0-.9-.12q-4.01 1.18-3.19 5.86.75 4.3-3.64 4.95-3.57.52-4.59-2.47-1.62-4.77-6.32-3.32a.92.86 88.8 0 0-.58.65q-1.77 7.34-8.93 4.34a1.12 1.07 3.5 0 1-.62-.67q-.75-2.27-.39-4.72.56-3.81-2.14-4.27-1.44-.24-3.54.86-1.46.76-3.27 1.8a1.7 1.69 43.1 0 1-1.61.05q-2.91-1.44-3.97-4.16a1.02 1.09 48.2 0 1 .08-.91l2.94-5.2a1.33 1.7 52 0 0 .23-.92q-.25-3.58-4.23-3-1.59.23-4.58-.13a.72.84 86.4 0 1-.69-.52l-1.31-4.23q-.86-2.8 2.35-3.8 6.01-1.88 2.72-6.6a1.36 1.63 84.9 0 0-.79-.55q-6.84-2.12-3.21-8.3.93-1.59 2.68-1.06 5.69 1.69 7.2-3.32a1.13 1.11 37.5 0 0-.13-.91l-3.18-5.01a1.48 1.47 49.9 0 1 .15-1.78q2.44-2.74 4.6-3.83a.81.74 48.6 0 1 .83.09q3.22 2.47 4.92 2.89 4.59 1.11 3.94-3.69-.98-7.25 5.81-7.08a1.27 1.33 68.2 0 1 .87.35q1.83 1.72 2.76 4.03.84 2.09 1 3.02.27 1.62-.63 3.24-1.51 2.74-2.75 3.25-2.95 1.22-5.64 2.92-8.56 5.4-10.14 14.35-1.29 7.29 2.08 13.83 3.44 6.66 10.86 10.15 3.53 1.65 7.28 1.82 3.28.14 7.26-1.13 14.21-4.56 15.25-19.35.4-5.66-1.45-10.1-1.95-4.7-6.03-8.63a.65.65 0 0 1-.07-.86q1.72-2.28 3.13-4.68 1.17-1.98 3-3.17 1.98-1.29 3.98-.45 2.73 1.13 3.13 4.5a1.33 1.44 55.8 0 1-.21.91l-3.07 4.85a.98.93 40.7 0 0 .12 1.14z"
     id="path8" /><path
     fill="#92b67a"
     d="M233.23 193.56q10.78-.61 17.08-10 6.12-9.11 1.88-19.75-3.05-7.65-10.21-11.18-6.25-3.08-12.81-2.05-6.64 1.05-12.23 6.11-1.87 1.69-4.32 1.34-2.04-.28-3.72-1.93-2.97-2.91-1.25-6.54 1.01-2.14 3.97-4.43 7.19-5.58 15.96-6.74 8.31-1.11 16.56 2.01 15.41 5.81 20.91 23.29.54 1.69 2.31 1.6 6.25-.3 11.95-.31 4.03 0 5.75.86 3.06 1.53 3.44 5.41.25 2.51-1.36 4.22-1.19 1.27-3.72 1.38-7.46.31-15.8.13-1.99-.05-2.37 1.91-1.41 7.28-5.78 13-4.22 5.52-10.27 9.31-10.31 6.46-23.43 3.92-11.14-2.15-17.71-9.18-4.64-4.96-.55-9.12 1.91-1.95 4.07-2.06 2.52-.14 4.61 2.05 3.34 3.51 7.89 5.32 4.3 1.71 9.15 1.43z"
     id="path10" /><circle
     cx="232.23"
     cy="171.68"
     r="12.7"
     fill="#92b67a"
     id="circle12" /><path
     fill="#fff"
     d="M57.96 166.7q.2.62-.14 1.16a.6.52 29.9 0 1-.75.15q-3.27-1.75-6.91-1.63-1.59.06-2.54.96-1.97 1.87 1.38 3.41 5.24 2.41 7.15 3.86 3.49 2.65 3.14 7.14-.39 5.01-4.94 6.97-7.97 3.44-16.06.4a.78.7 11.3 0 1-.51-.68l.11-6.76a.33.31 15.8 0 1 .49-.25q4.71 2.56 8.12 2.57 3.16.01 2.56-2.95a1.29 1.16 12.9 0 0-.54-.77q-1.98-1.3-4.11-2.33-3.16-1.52-4.09-2.29-5.05-4.16-2.01-10.6 1.88-3.98 7.27-4.91 5.94-1.03 11.75.41a.76.6 9 0 1 .57.62l-.06 4.57q0 .56.12.95zm25.73 22.84 8.83 7.41q.92.77-.3.79l-9.41.19a1.07 1.18 69.8 0 1-.85-.34l-6.44-6.66a1.48 1.37 70.7 0 0-.83-.44q-9.5-1.48-12.16-9.16-2.13-6.12-.01-12.17 2.33-6.67 9.98-8.91 4.92-1.44 9.58.22 4.49 1.59 7.09 5.61 3.62 5.6 1.99 13-1.36 6.15-7.44 9.9a.35.34 48.8 0 0-.03.56zm-7.161-6.59a5.49 7.86.3 0 0 5.53-7.831 5.49 7.86.3 0 0-5.448-7.889 5.49 7.86.3 0 0-5.53 7.831 5.49 7.86.3 0 0 5.448 7.889zm584.851-15.17q-.49 1.64 1.23 2.56 2.55 1.37 5.12 2.69 2.89 1.47 4.26 4.1 1.28 2.46.89 5.53-.7 5.55-6.38 7.09-6.72 1.82-13.7-.57a.82.81 9.6 0 1-.55-.77v-6.43q0-1.29 1.05-.55 2.79 1.98 7.4 2.44 2.55.26 2.55-2.31 0-2.05-2.99-2.86-4.87-1.32-7.12-5.28-1.49-2.61-1.09-5.57.44-3.28 2.77-5.33 2.61-2.32 7.37-2.71 4.23-.34 8.81.89a.68.67 8 0 1 .5.65v5.76a.81.81 0 0 1-1.2.71q-4.21-2.32-8.29-.7a.99 1.12 85.1 0 0-.63.66z"
     id="path14" /><path
     fill="#fff"
     d="M688.2 190.71q-16.15-3.53-12.51-20.02 1.5-6.81 7.23-9.47 5.1-2.36 10.83-.98 8.44 2.05 9.91 12.27 1.48 10.29-7.06 16.42a.47.47 0 0 0-.04.74l8.03 7q1.24 1.08-.41 1.08h-8.81a1.08 1.22 71.3 0 1-.87-.37l-5.5-6.17a1.72 1.27 68.5 0 0-.8-.5zm1.252-7.78a5.34 7.82.5 0 0 5.408-7.773 5.34 7.82.5 0 0-5.272-7.867 5.34 7.82.5 0 0-5.408 7.773 5.34 7.82.5 0 0 5.272 7.867zm-583.642.02 8.56.04a.88.89 0 0 1 .87.88l.09 5.86a.51.49 89.4 0 1-.49.52H96.88a.88.87 0 0 1-.88-.87l.06-28.81a.49.53.5 0 1 .5-.53l7.75.11a.55.51 89.4 0 1 .51.54l.48 21.75a.52.51 89.4 0 0 .51.51zm613.65.05q-1.34 3.56-.46 7.21l-9.9.04a.85.84 89.7 0 1-.85-.85l.06-28.83a.49.53.5 0 1 .5-.53l7.25.11a.54.52 89.4 0 1 .52.53l.23 21.5a.67.74 6.9 0 0 .48.68q1.04.33 2.17.14z"
     id="path16" /><circle
     cx="533.85"
     cy="175.26"
     r="12.9"
     fill="#0079d6"
     id="circle18" /><path
     fill="#92b67a"
     d="M185.25 172.96q.13-.69-.29-1.21 1.68-7.07 8.21-6.98 4.56.06 4.66.06 2.39-.14 4.79-.13 4.49.02 4.76.05 5.31.56 5.62 6.5.17 3.23-2.27 4.8-1.44.93-4.65 1.06-11.04.47-16.89-.3-2.62-.34-3.94-3.85z"
     id="path20" /><ellipse
     cx="174.687"
     cy="-77.486"
     fill="#92b67a"
     rx="7.86"
     ry="5.49"
     transform="rotate(90.3)"
     id="ellipse22" /><ellipse
     cx="169.086"
     cy="-691.022"
     fill="#0079d6"
     rx="7.82"
     ry="5.34"
     transform="rotate(90.5)"
     id="ellipse24" /><path
     fill="#0079d6"
     d="M500.21 168.5c1.796 3.126-17.202 1.086-17.71.79 6.087-.42 11.003-.517 14.75-.29 1.307.08 2.293-.087 2.96-.5zm-23.25 7.5c-.22-.333-.22-.667 0-1 .927-2.827 2.773-4.73 5.54-5.71 0 0 18.98 1.87 17.71-.79 1.353-5.527 3.703-10.423 7.05-14.69 3.28-4.187 7.427-7.45 12.44-9.79 10.747-5.027 21.763-4.197 33.05 2.49a23.584 23.584 0 0 1 6.23 5.32c1.233 1.507 1.86 2.977 1.88 4.41.033 1.907-.773 3.473-2.42 4.7-1.933 1.433-3.917 1.797-5.95 1.09-.7-.247-2.19-1.33-4.47-3.25-5.5-4.627-11.923-6.137-19.27-4.53-4.76 1.04-8.683 3.683-11.77 7.93-5.473 7.527-6.113 15.28-1.92 23.26 3.12 5.933 8.27 9.42 15.45 10.46 6.58.96 12.327-.537 17.24-4.49 1.867-1.493 3.217-2.33 4.05-2.51 1.2-.253 2.377-.12 3.53.4 1.013.453 1.857 1.203 2.53 2.25 1.887 2.913 1.433 5.813-1.36 8.7-1.673 1.733-3.283 3.033-4.83 3.9-10.073 5.673-20.007 6.6-29.8 2.78-5.393-2.1-9.853-5.18-13.38-9.24-3.567-4.107-6.153-9.08-7.76-14.92a1.045 1.045 0 0 0-1.01-.77H485c-2.72 0-4.7-.77-5.94-2.31-.3-.373-1-1.603-2.1-3.69z"
     id="path26" /><path
     fill="#0079d6"
     d="M559.5 169.29s16.761.469 16.75.42c2.38.933 3.857 2.483 4.43 4.65.467 1.8.203 3.447-.79 4.94-1.073 1.607-2.703 2.507-4.89 2.7-2.807.247-6.527.347-11.16.3-3.6-.033-5.653-.113-6.16-.24-1.6-.393-2.877-1.277-3.83-2.65-.847-1.207-1.2-2.607-1.06-4.2.307-3.647 2.543-5.62 6.71-5.92zm16.75.42s-13.868 1.695-16.75-.42a46.837 46.837 0 0 1 16.75.42z"
     id="path28" /><path
     fill="#3d5567"
     d="M361.57 192.2q1.15 1.64 3.14 1.79 1.84.13 1.04 3.94a1.51 1.51 0 0 1-1.18 1.18q-2.52.51-3.39 2.42a1.12.97 46 0 0 .05.92l1.48 2.92a1.12.96 46.1 0 1 .05.9q-1.1 2.56-3.98 1.16-3.59-1.73-4.84 1.76-1.76 4.87-4.39 1.56-.04-.05-1.18-2.28-1.02-2.01-3.37-1.35-2.01.57-2.06.58-3.6.44-2.55-3.36.37-1.31.41-1.86.09-1.09-.04-1.92a1.45 1.44 88.4 0 0-1.28-1.22q-3.88-.39-3.38-3.67a1.02 1.11 76.9 0 1 .51-.75q.97-.6 2.03-1.03 1.9-.77 2.2-1.47.53-1.24-.85-3.11a2.75 2.76 35.7 0 1-.4-2.47q.72-2.25 5.26-.84 2.05.64 3.36-1.57l1.85-3.12q1.3-2.19 2.88 1l1.14 2.31q1.03 2.08 2.68 1.53 4.6-1.51 5.64.45a2.22 2.22 0 0 1-.33 2.55q-1.5 1.63-.5 3.05zm-5.75 4.36a4.65 4.65 0 0 0-4.65-4.65 4.65 4.65 0 0 0-4.65 4.65 4.65 4.65 0 0 0 4.65 4.65 4.65 4.65 0 0 0 4.65-4.65z"
     id="path30" /><path
     d="M452.168 169.985v6.014h-1.118v-6.014zm-.96 4.895h16.546V176h-16.546zm-16.642-4.895h16.578v1.119h-16.578zm40.092 5.468-3.471 1.98-3.471 1.982.02-3.997.02-3.997 3.45 2.016zm-47.006-5.06 3.472 1.982 3.47 1.981-.019-3.997-.02-3.997-3.451 2.016z"
     id="path32" /><path
     fill="#6eae43"
     d="M316.445 166.979v6.014h1.119v-6.014zm.96 4.895H300.86v1.119h16.546zm16.642-4.895h-16.578v1.118h16.578zm-40.092 5.467 3.471 1.982 3.472 1.98-.02-3.996-.02-3.997-3.451 2.016zm47.006-5.059-3.471 1.982-3.472 1.98.02-3.996.02-3.997 3.452 2.016z"
     id="path34" /><path
     fill="#4472c4"
     d="M606.038 171.045v6.014h1.119v-6.014zm.96 4.895h-16.546v1.119H607zm16.642-4.895h-16.578v1.118h16.578zm-40.092 5.467 3.472 1.981 3.471 1.982-.02-3.997-.02-3.997-3.451 2.015zm47.006-5.059-3.471 1.982-3.471 1.98.02-3.996.02-3.997 3.45 2.016z"
     id="path36" /><path
     fill="#6eae43"
     d="M160.466 165.741v6.014h-1.119v-6.014zm-.96 4.896h16.546v1.118h-16.547zm-16.642-4.896h16.577v1.119h-16.577zm40.092 5.468-3.472 1.981-3.471 1.981.02-3.997.02-3.997 3.451 2.016zm-47.007-5.06 3.472 1.982 3.471 1.981-.02-3.996-.02-3.997-3.45 2.015z"
     id="path38" /><path
     fill="#4472c4"
     d="M367.067 41.544q5.239-2.709 10.361-5.982a.546.564 44.1 0 1 .582-.018l10.608 6.166a.546.52 44.7 0 0 .537.009l10.626-6.202a.385.385 0 0 1 .385 0L415.65 44.5a.385.399 14.7 0 1 .193.34l.027 17.66q0 .345-.305.166l-4.173-2.445a.403.367 16.7 0 1-.197-.327l-.027-12.376a.416.434 14.4 0 0-.21-.372l-10.671-6.148a.399.399 0 0 0-.394 0l-10.778 6.023a.39.407 46.1 0 1-.394 0l-10.527-6.081a.412.38 43.2 0 0-.403-.005l-10.733 6.247a.39.385 75 0 0-.193.336l-.027 12.295a.403.39 75.9 0 1-.201.35l-4.106 2.243a.345.34 75.8 0 1-.506-.304V35.889q0-.457.385-.233l4.11 2.382a.645.703 13.8 0 1 .323.591l.018 2.799a.134.143 75.7 0 0 .206.116zm67.385-.743-10.666 6.063q-.398.228 0 .457l26.258 15.125q.268.153-.004.31l-15.243 8.776a.399.399 0 0 1-.394 0l-15.18-8.647q-.451-.26-.013-.506l4.183-2.355a.407.376 43.9 0 1 .39.009l10.616 6.17a.439.443 44.7 0 0 .448-.004l5.386-3.229a.488.488 0 0 0-.009-.842l-21.251-12.282a.385.399 14.7 0 1-.193-.34v-4.877a.403.403 0 0 1 .202-.349l15.3-8.857a.591.587 44.6 0 1 .595 0l15.252 8.848q.223.13-.014.264l-4.195 2.378a.372.434 47.5 0 1-.394.014l-10.684-6.122a.403.39 44.7 0 0-.39-.004zm-80.85.385.027-11.942a.42.399 75.3 0 1 .193-.354l4.124-2.476q.412-.246.412.242l-.027 35.732a.38.39 74.7 0 1-.193.331l-15.332 8.857a.699.672 44.2 0 1-.694-.004l-15.13-8.808a.434.425 15.3 0 1-.22-.371l.028-17.696a.502.484 76 0 1 .25-.435l15.422-8.75a.412.38 43.6 0 1 .39.005l10.392 5.884a.242.242 0 0 0 .358-.215zm-.51 5.58-10.303-5.871a.654.663 44.6 0 0-.663.009l-10.442 6.058a.399.385 75.3 0 0-.193.34l-.027 12.395a.376.39 14 0 0 .193.336l10.648 6.103a.699.707 44.6 0 0 .707-.009l10.451-6.175a.407.385 75.7 0 0 .193-.345l-.027-11.892a1.07 1.11 14.4 0 0-.537-.95z"
     id="path40" /><path
     fill="none"
     stroke="#000"
     stroke-width="1.108"
     d="M341.106 270.054h98.788v27.892h-98.788z"
     id="path42"
     style="fill:#ffffff" /><path
     d="M422.047 287.144q-.311.082-.68.134-.363.053-.65.053-1.002 0-1.524-.539-.521-.54-.521-1.729v-3.48h-.745v-.926h.745v-1.88h1.101v1.88h2.274v.926h-2.274v2.982q0 .516.024.809.023.287.164.54.129.233.351.345.229.105.692.105.27 0 .562-.076.293-.082.422-.135h.059zm-5.52.058h-1.101v-3.726q0-.452-.053-.844-.053-.399-.194-.621-.146-.246-.421-.364-.276-.123-.715-.123-.451 0-.944.223-.492.223-.943.568v4.887h-1.102v-6.545h1.102v.727q.516-.428 1.066-.668.551-.24 1.131-.24 1.06 0 1.617.638.557.639.557 1.84zm-7.143-3.158h-4.822q0 .603.182 1.055.182.445.498.732.305.281.72.422.422.14.926.14.668 0 1.342-.263.68-.27.967-.527h.059v1.2q-.557.235-1.137.393-.58.158-1.219.158-1.629 0-2.543-.878-.914-.885-.914-2.508 0-1.606.873-2.549.879-.943 2.309-.943 1.324 0 2.039.773.72.773.72 2.197zm-1.072-.844q-.006-.867-.44-1.342-.427-.474-1.306-.474-.885 0-1.412.521-.521.522-.592 1.295zm-6.574 3.258q0 1.664-.756 2.443-.756.78-2.326.78-.522 0-1.02-.077-.492-.07-.972-.205v-1.125h.058q.27.106.856.258.586.158 1.172.158.562 0 .931-.134.37-.135.575-.375.205-.229.293-.551.087-.322.087-.72v-.599q-.498.399-.955.598-.45.194-1.154.194-1.172 0-1.863-.844-.686-.85-.686-2.39 0-.845.235-1.454.24-.615.65-1.06.38-.417.926-.645.545-.234 1.084-.234.568 0 .949.117.387.111.814.345l.07-.28h1.032zm-1.102-1.055v-3.568q-.439-.2-.82-.281-.375-.088-.75-.088-.908 0-1.43.61-.521.609-.521 1.769 0 1.101.387 1.67.386.568 1.283.568.48 0 .96-.182.487-.187.891-.498zm-5.443 1.8h-1.236l-.856-2.432h-3.773l-.856 2.431h-1.177l3.175-8.724h1.547zm-2.45-3.429-1.528-4.283-1.536 4.283zm-5.929 3.018q-.55.264-1.049.41-.492.147-1.048.147-.71 0-1.301-.205-.592-.211-1.014-.633-.428-.422-.662-1.067-.234-.644-.234-1.506 0-1.605.878-2.519.885-.914 2.333-.914.562 0 1.101.158.545.158.996.387v1.224h-.058q-.504-.392-1.043-.603-.534-.211-1.043-.211-.938 0-1.483.633-.539.627-.539 1.845 0 1.184.528 1.823.533.633 1.494.633.334 0 .68-.088.345-.088.62-.229.24-.123.452-.258.21-.14.334-.24h.058zm-6.96.41h-1.102v-3.726q0-.452-.053-.844-.053-.399-.193-.621-.147-.246-.422-.364-.276-.123-.715-.123-.451 0-.943.223-.493.223-.944.568v4.887h-1.101v-6.545h1.101v.727q.516-.428 1.067-.668.55-.24 1.13-.24 1.061 0 1.618.638.556.639.556 1.84zm-6.915-6.545-3.82 8.96h-1.178l1.219-2.731-2.608-6.229h1.196l2.01 4.852 2.027-4.852zm-7.26 4.055q0 .51-.24 1.008-.234.498-.662.843-.469.375-1.096.586-.62.211-1.5.211-.943 0-1.699-.175-.75-.176-1.53-.522v-1.453h.083q.662.55 1.53.85.866.298 1.628.298 1.078 0 1.676-.404.603-.404.603-1.078 0-.58-.287-.855-.281-.276-.861-.428-.44-.117-.955-.194-.51-.076-1.084-.193-1.16-.246-1.723-.838-.556-.597-.556-1.553 0-1.095.925-1.793.926-.703 2.35-.703.92 0 1.687.176.768.176 1.36.434v1.37h-.082q-.498-.421-1.313-.696-.808-.282-1.658-.282-.932 0-1.5.387-.562.387-.562.996 0 .545.28.856.282.31.991.474.375.082 1.067.2.69.117 1.171.24.973.257 1.465.779.492.521.492 1.459z"
     id="path44" /><path
     fill="none"
     stroke="#378415"
     stroke-opacity=".98"
     stroke-width="1.335"
     d="M164.703 270.167h144.523v27.665H164.703z"
     id="path46"
     style="fill:#ffffff" /><path
     fill="#55a229"
     d="M183.835 288.468h-1.506l-2.918-3.469h-1.635v3.469h-1.16v-8.725h2.443q.791 0 1.319.106.527.1.949.363.474.299.738.756.27.45.27 1.148 0 .944-.475 1.582-.475.633-1.307.955zm-2.713-6.27q0-.375-.135-.662-.129-.293-.434-.492-.252-.17-.597-.234-.346-.07-.815-.07h-1.365v3.292h1.172q.55 0 .96-.093.411-.1.698-.364.264-.246.387-.562.129-.323.129-.815zm8.935 3.112h-4.822q0 .603.182 1.054.181.446.498.733.304.28.72.422.422.14.926.14.668 0 1.342-.263.68-.27.967-.528h.058v1.201q-.556.235-1.136.393-.58.158-1.22.158-1.628 0-2.542-.879-.914-.885-.914-2.508 0-1.605.873-2.548.879-.944 2.309-.944 1.324 0 2.039.774.72.773.72 2.197zm-1.072-.844q-.006-.867-.44-1.342-.427-.475-1.306-.475-.885 0-1.412.522-.522.521-.592 1.295zm12.293 4.002h-1.102v-3.727q0-.422-.04-.814-.036-.393-.159-.627-.135-.252-.387-.381-.251-.129-.726-.129-.463 0-.926.234-.463.229-.926.586.018.135.03.317.011.176.011.351v4.19h-1.101v-3.727q0-.433-.041-.82-.035-.393-.158-.627-.135-.252-.387-.375-.252-.129-.727-.129-.45 0-.908.223-.451.222-.902.568v4.887h-1.102v-6.545h1.102v.726q.515-.427 1.025-.668.516-.24 1.096-.24.668 0 1.13.281.47.282.698.78.668-.563 1.219-.809.55-.252 1.177-.252 1.079 0 1.588.656.516.65.516 1.823zm7.699-3.27q0 1.6-.82 2.526-.82.925-2.197.925-1.39 0-2.21-.925-.814-.926-.814-2.526 0-1.6.815-2.525.82-.932 2.209-.932 1.377 0 2.197.932.82.926.82 2.525zm-1.137 0q0-1.271-.498-1.886-.498-.622-1.382-.622-.897 0-1.395.622-.492.615-.492 1.886 0 1.23.498 1.87.498.632 1.389.632.878 0 1.377-.627.503-.633.503-1.875zm6.24 3.212q-.31.081-.679.134-.363.053-.65.053-1.002 0-1.524-.54-.521-.538-.521-1.728v-3.48h-.744v-.926h.744v-1.881h1.101v1.88h2.274v.927h-2.274v2.982q0 .516.024.809.023.287.164.539.129.234.351.345.229.106.692.106.27 0 .562-.076.293-.082.422-.135h.059zm6.81-3.1h-4.823q0 .603.182 1.054.181.446.498.733.304.28.72.422.422.14.926.14.668 0 1.342-.263.68-.27.967-.528h.058v1.201q-.556.235-1.136.393-.58.158-1.22.158-1.628 0-2.542-.879-.914-.885-.914-2.508 0-1.605.873-2.548.879-.944 2.309-.944 1.324 0 2.039.774.72.773.72 2.197zm-1.073-.844q-.006-.867-.44-1.342-.427-.475-1.306-.475-.885 0-1.412.522-.522.521-.592 1.295zm9.334-3.721q.533.586.814 1.436.288.85.288 1.927 0 1.079-.293 1.934-.288.85-.809 1.418-.54.592-1.277.89-.733.3-1.676.3-.92 0-1.676-.305-.75-.305-1.277-.885-.528-.58-.815-1.424-.281-.844-.281-1.928 0-1.066.281-1.91.282-.85.82-1.453.516-.574 1.278-.879.768-.304 1.67-.304.937 0 1.682.31.75.305 1.271.873zm-.105 3.363q0-1.699-.762-2.619-.762-.926-2.08-.926-1.33 0-2.092.926-.756.92-.756 2.62 0 1.716.774 2.63.773.908 2.074.908 1.3 0 2.068-.908.774-.914.774-2.63zm7.043-.984h-.06q-.245-.059-.48-.082-.228-.03-.544-.03-.51 0-.985.23-.474.222-.914.58v4.646h-1.101v-6.545h1.101v.967q.656-.528 1.154-.744.504-.223 1.026-.223.287 0 .416.017.129.012.386.053zm5.876 4.934q-.55.263-1.048.41-.493.146-1.05.146-.708 0-1.3-.205-.592-.21-1.014-.633-.427-.422-.662-1.066-.234-.645-.234-1.506 0-1.605.879-2.52.885-.913 2.332-.913.562 0 1.101.158.545.158.996.386v1.225h-.058q-.504-.393-1.043-.603-.533-.211-1.043-.211-.938 0-1.483.632-.539.627-.539 1.846 0 1.184.528 1.822.533.633 1.494.633.334 0 .68-.088.345-.088.62-.228.24-.123.452-.258.21-.14.334-.24h.058zm6.885.41h-1.101v-3.727q0-.451-.053-.844-.053-.398-.193-.62-.147-.247-.422-.364-.276-.123-.715-.123-.451 0-.943.223-.493.222-.944.568v4.887h-1.101v-9.117h1.101v3.298q.516-.427 1.067-.668.55-.24 1.13-.24 1.061 0 1.618.639.556.639.556 1.84zm7.6-3.158h-4.822q0 .603.181 1.054.182.446.498.733.305.28.721.422.422.14.926.14.668 0 1.342-.263.68-.27.966-.528h.059v1.201q-.557.235-1.137.393-.58.158-1.219.158-1.628 0-2.542-.879-.915-.885-.915-2.508 0-1.605.873-2.548.88-.944 2.31-.944 1.323 0 2.038.774.72.773.72 2.197zm-1.072-.844q-.006-.867-.44-1.342-.428-.475-1.307-.475-.884 0-1.412.522-.521.521-.591 1.295zm7.418 2.115q0 .897-.745 1.47-.738.575-2.021.575-.727 0-1.336-.17-.604-.176-1.014-.38v-1.237h.059q.521.392 1.16.627.639.228 1.225.228.726 0 1.136-.234.41-.234.41-.738 0-.387-.222-.586-.223-.2-.856-.34-.234-.053-.615-.123-.375-.07-.685-.152-.862-.229-1.225-.668-.357-.446-.357-1.09 0-.405.164-.762.17-.357.51-.639.328-.275.831-.433.51-.164 1.137-.164.586 0 1.184.146.603.14 1.002.346v1.178h-.059q-.422-.311-1.025-.522-.604-.217-1.184-.217-.603 0-1.02.235-.415.228-.415.685 0 .405.252.61.246.205.796.334.305.07.68.14.381.07.633.13.767.175 1.184.603.416.433.416 1.148zm4.974 1.829q-.31.081-.68.134-.363.053-.65.053-1.002 0-1.523-.54-.522-.538-.522-1.728v-3.48h-.744v-.926h.744v-1.881h1.102v1.88h2.273v.927h-2.273v2.982q0 .516.023.809.024.287.164.539.13.234.352.345.228.106.691.106.27 0 .563-.076.293-.082.422-.135h.058zm5.414-5.286h-.058q-.246-.059-.48-.082-.23-.03-.546-.03-.51 0-.984.23-.475.222-.914.58v4.646H269.1v-6.545h1.102v.967q.656-.528 1.154-.744.504-.223 1.025-.223.288 0 .416.017.13.012.387.053zm5.912 5.344h-1.095v-.697q-.147.1-.399.28-.246.177-.48.282-.276.135-.633.223-.358.093-.838.093-.885 0-1.5-.586t-.615-1.494q0-.744.316-1.2.322-.464.914-.727.598-.264 1.436-.358.838-.094 1.799-.14v-.17q0-.375-.135-.622-.13-.246-.375-.386-.235-.135-.563-.182-.328-.047-.685-.047-.434 0-.967.117-.533.112-1.102.329h-.058v-1.12q.322-.087.931-.193.61-.105 1.202-.105.691 0 1.2.117.516.111.891.386.37.27.563.698.193.427.193 1.06zm-1.095-1.612v-1.822q-.504.03-1.19.088-.68.059-1.078.17-.475.135-.768.422-.293.281-.293.78 0 .562.34.849.34.281 1.037.281.58 0 1.061-.223.48-.228.89-.545zm6.615 1.554q-.31.081-.68.134-.363.053-.65.053-1.002 0-1.524-.54-.521-.538-.521-1.728v-3.48h-.744v-.926h.744v-1.881h1.101v1.88h2.274v.927h-2.274v2.982q0 .516.024.809.023.287.164.539.129.234.351.345.229.106.692.106.27 0 .562-.076.293-.082.422-.135h.059zm6.908-3.212q0 1.6-.82 2.526-.82.925-2.198.925-1.388 0-2.209-.925-.814-.926-.814-2.526 0-1.6.814-2.525.82-.932 2.21-.932 1.376 0 2.197.932.82.926.82 2.525zm-1.137 0q0-1.271-.498-1.886-.498-.622-1.383-.622-.896 0-1.394.622-.492.615-.492 1.886 0 1.23.498 1.87.498.632 1.388.632.88 0 1.377-.627.504-.633.504-1.875zm6.926-2.074h-.058q-.247-.059-.481-.082-.228-.03-.545-.03-.51 0-.984.23-.475.222-.914.58v4.646h-1.102v-6.545h1.102v.967q.656-.528 1.154-.744.504-.223 1.025-.223.287 0 .416.017.13.012.387.053z"
     aria-label="RemoteOrchestrator"
     id="path48" /><path
     fill="none"
     stroke="#4386b7"
     stroke-opacity=".976"
     stroke-width="1.261"
     d="M470.739 269.569h128.599v27.739H470.739z"
     id="path50"
     style="fill:#ffffff" /><path
     fill="#1e5abe"
     d="M587.729 282.563h-.06q-.245-.059-.48-.082-.228-.03-.544-.03-.51 0-.985.23-.474.222-.914.58v4.646h-1.101v-6.545h1.101v.967q.656-.528 1.154-.745.504-.222 1.026-.222.287 0 .416.017.129.012.387.053zm-5.79 2.074q0 1.6-.82 2.526-.82.925-2.197.925-1.389 0-2.21-.925-.814-.926-.814-2.526 0-1.6.815-2.525.82-.932 2.209-.932 1.377 0 2.197.932.82.926.82 2.525zm-1.136 0q0-1.271-.498-1.887-.498-.62-1.383-.62-.897 0-1.395.62-.492.616-.492 1.887 0 1.23.498 1.87.498.632 1.389.632.879 0 1.377-.627.504-.633.504-1.875zm-5.772 3.211q-.31.082-.68.135-.363.053-.65.053-1.002 0-1.523-.54-.522-.539-.522-1.728v-3.48h-.744v-.926h.744v-1.881h1.102v1.88h2.273v.927h-2.273v2.982q0 .516.023.809.024.287.164.539.13.234.352.345.228.106.691.106.27 0 .563-.076.293-.082.422-.135h.058zm-5.52.059h-1.095v-.698q-.146.1-.398.282-.247.175-.48.28-.276.136-.634.224-.357.093-.838.093-.884 0-1.5-.586-.615-.586-.615-1.494 0-.744.317-1.2.322-.464.914-.728.597-.263 1.435-.357.838-.094 1.799-.14v-.17q0-.375-.135-.622-.129-.246-.375-.386-.234-.135-.562-.182-.328-.047-.686-.047-.433 0-.967.117-.533.112-1.101.328h-.059v-1.119q.323-.088.932-.193.61-.106 1.201-.106.691 0 1.201.118.516.111.89.386.37.27.563.698.194.427.194 1.06zm-1.095-1.612v-1.822q-.504.03-1.19.088-.68.059-1.078.17-.474.135-.767.422-.293.281-.293.78 0 .562.34.849.34.281 1.037.281.58 0 1.06-.223.48-.228.891-.545zm-4.816-3.732h-.059q-.246-.059-.48-.082-.229-.03-.545-.03-.51 0-.985.23-.474.222-.914.58v4.646h-1.101v-6.545h1.101v.967q.656-.528 1.154-.745.504-.222 1.026-.222.287 0 .416.017.129.012.387.053zm-5.414 5.285q-.311.082-.68.135-.363.053-.65.053-1.002 0-1.524-.54-.521-.539-.521-1.728v-3.48h-.745v-.926h.745v-1.881h1.101v1.88h2.274v.927h-2.274v2.982q0 .516.024.809.023.287.164.539.128.234.351.345.229.106.692.106.27 0 .562-.076.293-.082.422-.135h.059zm-4.975-1.828q0 .896-.744 1.47-.738.575-2.022.575-.726 0-1.336-.17-.603-.176-1.013-.38v-1.237h.058q.522.392 1.16.627.64.228 1.225.228.727 0 1.137-.234.41-.234.41-.738 0-.387-.223-.586-.222-.2-.855-.34-.235-.053-.615-.123-.375-.07-.686-.153-.861-.228-1.225-.668-.357-.445-.357-1.09 0-.404.164-.761.17-.358.51-.639.328-.275.832-.433.51-.164 1.137-.164.586 0 1.183.146.604.14 1.002.346v1.178h-.058q-.422-.311-1.026-.522-.603-.217-1.183-.217-.604 0-1.02.235-.416.228-.416.685 0 .404.252.61.246.205.797.334.305.07.68.14.38.07.632.129.768.176 1.184.604.416.433.416 1.148zm-6.346-1.271h-4.822q0 .603.182 1.054.181.446.498.733.304.28.72.421.422.141.926.141.668 0 1.342-.264.68-.27.967-.527h.058v1.201q-.556.235-1.136.393-.58.158-1.22.158-1.628 0-2.542-.879-.914-.885-.914-2.508 0-1.605.873-2.548.879-.944 2.308-.944 1.325 0 2.04.774.72.773.72 2.197zm-1.072-.844q-.006-.867-.44-1.342-.427-.475-1.306-.475-.885 0-1.412.522-.522.521-.592 1.295zm-6.527 4.002h-1.102v-3.727q0-.451-.053-.844-.052-.398-.193-.62-.146-.247-.422-.364-.275-.123-.715-.123-.45 0-.943.223-.492.222-.943.568v4.887h-1.102v-9.117h1.102v3.298q.515-.427 1.066-.668.55-.24 1.13-.24 1.061 0 1.618.639.557.638.557 1.84zm-6.885-.41q-.55.263-1.049.41-.492.146-1.049.146-.709 0-1.3-.205-.592-.21-1.014-.633-.428-.422-.662-1.066-.235-.645-.235-1.506 0-1.605.88-2.52.884-.914 2.331-.914.563 0 1.102.159.545.158.996.386v1.225h-.059q-.504-.393-1.043-.604-.533-.21-1.043-.21-.937 0-1.482.632-.54.627-.54 1.846 0 1.184.528 1.822.533.633 1.494.633.334 0 .68-.088.346-.088.621-.228.24-.123.451-.258.211-.14.334-.24h.059zm-5.877-4.934h-.059q-.246-.059-.48-.082-.229-.03-.545-.03-.51 0-.984.23-.475.222-.915.58v4.646h-1.101v-6.545h1.101v.967q.657-.528 1.155-.745.504-.222 1.025-.222.287 0 .416.017.13.012.387.053zm-6.938-2.379q.534.586.815 1.436.287.85.287 1.927 0 1.078-.293 1.934-.287.85-.809 1.418-.539.592-1.277.89-.732.3-1.676.3-.92 0-1.676-.305-.75-.305-1.277-.885-.527-.58-.814-1.424-.282-.844-.282-1.928 0-1.066.282-1.91.28-.85.82-1.453.516-.574 1.277-.879.768-.305 1.67-.305.938 0 1.682.311.75.305 1.271.873zm-.105 3.363q0-1.699-.762-2.619-.761-.926-2.08-.926-1.33 0-2.092.926-.756.92-.756 2.62 0 1.716.774 2.63.773.908 2.074.908 1.3 0 2.069-.908.773-.914.773-2.63zm-8.666 4.36h-1.102v-9.117h1.102zm-3.234 0h-1.096v-.698q-.147.1-.399.282-.246.175-.48.28-.275.136-.633.224-.357.093-.838.093-.885 0-1.5-.586t-.615-1.494q0-.744.316-1.2.323-.464.914-.727.598-.264 1.436-.358.838-.094 1.799-.14v-.17q0-.375-.135-.622-.129-.246-.375-.386-.234-.135-.562-.182-.329-.047-.686-.047-.434 0-.967.117-.533.112-1.101.329h-.059v-1.12q.322-.088.932-.193.61-.105 1.2-.105.692 0 1.202.117.516.111.89.386.37.27.563.698.194.427.194 1.06zm-1.096-1.612v-1.822q-.504.03-1.19.088-.68.059-1.078.17-.474.135-.767.422-.293.281-.293.78 0 .562.34.849.34.281 1.037.281.58 0 1.06-.223.48-.228.89-.545zm-5.402 1.202q-.551.263-1.05.41-.492.146-1.048.146-.71 0-1.3-.205-.593-.21-1.015-.633-.427-.422-.662-1.066-.234-.645-.234-1.506 0-1.605.879-2.52.885-.914 2.332-.914.562 0 1.101.159.545.158.997.386v1.225h-.06q-.503-.393-1.042-.604-.533-.21-1.043-.21-.938 0-1.482.632-.54.627-.54 1.846 0 1.184.528 1.822.533.633 1.494.633.334 0 .68-.088.345-.088.62-.228.241-.123.452-.258.21-.14.334-.24h.058zm-6.545-2.86q0 1.6-.82 2.526-.821.925-2.198.925-1.389 0-2.209-.925-.814-.926-.814-2.526 0-1.6.814-2.525.82-.932 2.209-.932 1.377 0 2.197.932.82.926.82 2.525zm-1.137 0q0-1.271-.498-1.887-.498-.62-1.383-.62-.896 0-1.395.62-.492.616-.492 1.887 0 1.23.498 1.87.498.632 1.389.632.879 0 1.377-.627.504-.633.504-1.875zm-5.514 3.27h-5.52v-8.725h1.16v7.693h4.36z"
     id="path52" /><path
     fill="none"
     stroke="#4386b7"
     stroke-opacity=".976"
     stroke-width="1.3"
     d="M625.22 269.4h136.81v27.7H625.22z"
     id="path54"
     style="fill:#ffffff" /><path
     fill="#1e5abe"
     d="M753.239 281.26h-.062q-.262-.058-.511-.081-.244-.03-.58-.03-.543 0-1.047.229-.505.222-.973.579v4.64h-1.172v-6.536h1.172v.966q.698-.527 1.228-.744.536-.222 1.091-.222.305 0 .443.018.137.011.411.052zm-6.121 2.183h-5.13q0 .603.193 1.053.193.445.53.732.324.28.766.42.45.141.985.141.71 0 1.428-.263.723-.27 1.028-.527h.063v1.2q-.593.234-1.21.392t-1.296.158q-1.733 0-2.706-.878-.972-.883-.972-2.504 0-1.603.929-2.545.935-.942 2.456-.942 1.408 0 2.169.772.767.772.767 2.194zm-1.141-.843q-.006-.865-.468-1.34-.455-.473-1.39-.473-.94 0-1.502.52-.555.521-.63 1.293zm-6.994 3.997h-1.172v-.685q-.505.41-1.053.638-.549.228-1.191.228-1.247 0-1.982-.9-.73-.902-.73-2.5 0-.83.25-1.48.255-.65.685-1.106.424-.444.985-.678.568-.234 1.172-.234.549 0 .973.11.424.106.891.334v-2.832h1.172zm-1.172-1.61v-3.75q-.474-.199-.848-.275-.374-.076-.816-.076-.985 0-1.534.644-.548.643-.548 1.825 0 1.165.424 1.773.424.603 1.359.603.498 0 1.01-.205.51-.21.953-.538zm-6.72-6.02h-1.321v-1.141h1.321zm-.074 7.63h-1.172v-6.536h1.172zm-2.718-6.536-2.818 6.536h-1.178l-2.799-6.536h1.272l2.157 5.202 2.138-5.202zm-7.742 3.27q0 1.598-.873 2.523-.873.924-2.337.924-1.478 0-2.35-.924-.867-.925-.867-2.522 0-1.597.867-2.522.872-.93 2.35-.93 1.464 0 2.337.93.873.925.873 2.522zm-1.21 0q0-1.269-.53-1.883-.53-.62-1.47-.62-.954 0-1.484.62-.524.614-.524 1.884 0 1.229.53 1.866.53.632 1.478.632.935 0 1.464-.626.537-.632.537-1.872zm-5.828-2.07h-.062q-.262-.059-.511-.082-.243-.03-.58-.03-.542 0-1.047.229-.505.222-.973.579v4.64h-1.171v-6.536h1.171v.966q.699-.527 1.228-.744.536-.222 1.091-.222.306 0 .443.018.137.011.411.052zm-5.878-.744q0 .58-.218 1.077-.212.492-.599.854-.48.45-1.134.68-.655.221-1.652.221h-1.234v3.248h-1.234v-8.713h2.518q.835 0 1.415.135.58.129 1.028.41.53.333.817.83.293.498.293 1.258zm-1.284.03q0-.45-.168-.784-.169-.334-.511-.544-.3-.182-.686-.258-.38-.082-.966-.082h-1.222v3.482h1.04q.749 0 1.216-.123.468-.129.76-.404.294-.28.412-.591.125-.31.125-.696zm-6.383 5.64q-.586.264-1.116.41-.524.146-1.116.146-.754 0-1.384-.205-.63-.21-1.078-.632-.455-.42-.704-1.064-.25-.644-.25-1.504 0-1.603.935-2.516.942-.913 2.481-.913.599 0 1.172.158.58.158 1.06.386v1.223h-.062q-.537-.392-1.11-.603-.567-.21-1.11-.21-.997 0-1.577.632-.573.626-.573 1.843 0 1.182.56 1.82.568.631 1.59.631.356 0 .724-.087.367-.088.66-.229.256-.122.48-.257.225-.14.356-.24h.062zm-7.406.41h-1.171v-3.721q0-.451-.056-.843-.057-.398-.206-.62-.156-.246-.449-.363-.293-.123-.76-.123-.48 0-1.004.222-.524.223-1.004.568v4.88h-1.172v-6.536h1.172v.726q.549-.427 1.135-.667.586-.24 1.203-.24 1.128 0 1.72.638.593.637.593 1.837zm-7.355-6.536-4.064 8.947h-1.253l1.296-2.727-2.774-6.22h1.272l2.138 4.845 2.157-4.845zm-7.723 4.05q0 .508-.256 1.006-.25.497-.704.842-.499.375-1.166.585-.66.21-1.596.21-1.003 0-1.807-.175-.798-.175-1.627-.52v-1.452h.087q.704.55 1.627.849.922.298 1.733.298 1.147 0 1.782-.403.643-.404.643-1.077 0-.58-.306-.854-.3-.275-.916-.427-.468-.117-1.016-.194-.543-.076-1.154-.193-1.234-.245-1.832-.836-.592-.597-.592-1.55 0-1.095.985-1.791.984-.702 2.5-.702.978 0 1.794.175.817.176 1.447.433v1.37h-.088q-.53-.422-1.396-.697-.86-.28-1.764-.28-.991 0-1.596.385-.598.386-.598.995 0 .544.299.854.3.31 1.053.474.4.082 1.135.2.735.116 1.247.239 1.034.257 1.558.778.524.52.524 1.457zm-8.615-.668h-5.13q0 .603.193 1.053.193.445.53.732.324.28.767.421.448.14.985.14.71 0 1.427-.263.723-.269 1.029-.526h.062v1.199q-.592.234-1.21.392-.617.158-1.296.158-1.733 0-2.705-.878-.973-.883-.973-2.504 0-1.603.929-2.545.935-.942 2.456-.942 1.409 0 2.17.772.766.772.766 2.194zm-1.14-.842q-.007-.866-.468-1.34-.455-.474-1.39-.474-.942 0-1.503.52-.554.521-.63 1.294zm-6.103 3.937q-.33.082-.723.135-.387.053-.692.053-1.066 0-1.621-.539-.555-.538-.555-1.726v-3.475h-.791v-.925h.791v-1.878h1.172v1.878h2.419v.925h-2.419v2.978q0 .515.025.807.025.287.175.539.137.234.374.345.243.105.735.105.287 0 .599-.076.311-.082.448-.135h.063zm-5.86-7.571h-1.321v-1.141h1.321zm-.075 7.63h-1.171v-6.536h1.171zm-3.503 0h-1.172v-9.105h1.172zm-3.49 2.41h-1.172v-3.147q-.543.438-1.079.655-.536.21-1.16.21-1.24 0-1.982-.895-.735-.9-.735-2.48 0-.843.256-1.487.261-.65.685-1.088.412-.427.966-.661.555-.234 1.172-.234.561 0 .991.117.437.117.886.345l.074-.28h1.097zm-1.172-4.072v-3.698q-.487-.205-.86-.286-.375-.082-.811-.082-1.016 0-1.546.649-.53.644-.53 1.779 0 1.147.424 1.767.43.614 1.347.614.51 0 1.022-.205.511-.21.954-.538zm-6.365-.825q0 .51-.255 1.007-.25.497-.705.842-.498.375-1.165.585-.661.21-1.596.21-1.004 0-1.808-.175-.798-.175-1.627-.52v-1.452h.087q.705.55 1.627.849.923.298 1.733.298 1.147 0 1.783-.403.642-.404.642-1.077 0-.58-.305-.854-.3-.275-.917-.427-.467-.117-1.016-.194-.542-.076-1.153-.193-1.234-.245-1.833-.836-.592-.597-.592-1.55 0-1.095.985-1.791.985-.702 2.5-.702.978 0 1.795.175.817.176 1.446.433v1.37h-.087q-.53-.422-1.396-.697-.86-.28-1.764-.28-.992 0-1.596.385-.599.386-.599.995 0 .544.3.854.299.31 1.053.474.399.082 1.134.2.736.116 1.247.239 1.035.257 1.559.778.523.52.523 1.457z"
     font-size="12.368"
     id="path56" /><path
     fill="none"
     stroke="#378415"
     stroke-opacity=".98"
     stroke-width="1.234"
     d="M14.102 270.117h122.973v27.766H14.102z"
     id="path58"
     style="fill:#ffffff" /><path
     fill="#55a229"
     d="M124.04 282.008h-.059q-.246-.059-.48-.082-.229-.03-.545-.03-.51 0-.985.23-.474.222-.914.58v4.646h-1.101v-6.545h1.101v.967q.656-.528 1.154-.745.504-.222 1.026-.222.287 0 .416.017.129.012.387.053zm-5.754 2.185h-4.823q0 .604.182 1.055.182.445.498.732.305.282.72.422.423.141.927.141.668 0 1.341-.264.68-.27.967-.527h.059v1.201q-.557.235-1.137.393-.58.158-1.219.158-1.629 0-2.543-.879-.914-.885-.914-2.508 0-1.605.873-2.549.88-.943 2.309-.943 1.324 0 2.039.773.72.774.72 2.198zm-1.073-.843q-.006-.868-.44-1.342-.427-.475-1.306-.475-.884 0-1.412.522-.521.521-.592 1.295zm-6.574 4.002h-1.101v-.686q-.475.41-.99.639-.516.228-1.12.228-1.172 0-1.863-.902-.686-.902-.686-2.502 0-.832.235-1.482.24-.65.644-1.108.399-.445.926-.68.533-.234 1.102-.234.515 0 .914.111.398.106.838.334v-2.836h1.101zm-1.101-1.612v-3.756q-.446-.199-.797-.275-.352-.076-.768-.076-.926 0-1.441.644-.516.645-.516 1.828 0 1.166.399 1.776.398.603 1.277.603.469 0 .95-.205.48-.21.896-.539zm-6.317-6.029h-1.242v-1.143h1.242zm-.07 7.64h-1.102v-6.544h1.102zm-2.555-6.544-2.648 6.545H96.84l-2.63-6.545h1.195l2.027 5.209 2.01-5.21zm-7.277 3.275q0 1.6-.82 2.525-.82.926-2.198.926-1.388 0-2.209-.926-.814-.925-.814-2.525 0-1.6.814-2.525.82-.932 2.21-.932 1.376 0 2.197.932.82.925.82 2.525zm-1.137 0q0-1.271-.498-1.887-.498-.62-1.383-.62-.896 0-1.394.62-.492.616-.492 1.887 0 1.23.498 1.87.498.632 1.388.632.88 0 1.377-.627.504-.633.504-1.875zm-5.478-2.074h-.059q-.246-.059-.48-.082-.229-.03-.545-.03-.51 0-.985.23-.474.222-.914.58v4.646H82.62v-6.545h1.101v.967q.656-.528 1.154-.745.504-.222 1.026-.222.287 0 .416.017.129.012.387.053zm-5.526-.744q0 .58-.205 1.078-.2.492-.562.855-.452.451-1.067.68-.615.223-1.552.223h-1.16v3.252h-1.16v-8.725h2.366q.786 0 1.33.135.545.129.967.41.498.334.768.832.275.498.275 1.26zm-1.207.029q0-.451-.158-.785t-.48-.545q-.282-.182-.645-.258-.357-.082-.908-.082h-1.15v3.486h.979q.703 0 1.142-.123.44-.129.715-.404.276-.281.387-.592.117-.31.117-.697zm-6 5.648q-.55.264-1.049.41-.492.147-1.048.147-.71 0-1.301-.205-.592-.21-1.014-.633-.428-.422-.662-1.066-.234-.645-.234-1.506 0-1.606.879-2.52.884-.914 2.332-.914.562 0 1.101.159.545.158.996.386v1.225h-.058q-.504-.393-1.043-.604-.534-.21-1.043-.21-.938 0-1.483.632-.539.627-.539 1.846 0 1.184.528 1.822.533.633 1.494.633.334 0 .68-.088.345-.088.62-.228.24-.123.452-.258.21-.14.334-.24h.058zm-6.96.41h-1.102v-3.726q0-.451-.053-.844-.053-.398-.193-.62-.147-.247-.422-.364-.276-.123-.715-.123-.451 0-.943.223-.493.222-.944.568v4.887h-1.101v-6.545h1.101v.726q.516-.428 1.067-.668.55-.24 1.13-.24 1.061 0 1.618.639.556.638.556 1.84zm-6.915-6.544-3.82 8.959h-1.178l1.219-2.73-2.608-6.23h1.196l2.01 4.852 2.027-4.851zm-7.26 4.054q0 .51-.24 1.008-.234.498-.662.844-.469.375-1.096.586-.62.21-1.5.21-.943 0-1.699-.175-.75-.176-1.53-.521v-1.454h.083q.662.551 1.53.85.866.299 1.628.299 1.078 0 1.676-.404.603-.405.603-1.079 0-.58-.287-.855-.281-.275-.861-.428-.44-.117-.955-.193-.51-.076-1.084-.194-1.16-.246-1.723-.837-.556-.598-.556-1.553 0-1.096.925-1.793.926-.703 2.35-.703.92 0 1.687.176.768.175 1.36.433v1.371h-.082q-.498-.422-1.313-.697-.808-.281-1.658-.281-.932 0-1.5.386-.562.387-.562.997 0 .544.28.855.282.31.991.475.375.082 1.067.199.69.117 1.171.24.973.258 1.465.78.492.52.492 1.458zm-8.607 2.49h-1.102v-9.117h1.102zm-3.281 2.415h-1.102v-3.153q-.51.44-1.013.657-.504.21-1.09.21-1.166 0-1.864-.896-.691-.902-.691-2.484 0-.844.24-1.489.246-.65.645-1.09.386-.427.908-.662.521-.234 1.102-.234.527 0 .931.117.41.117.832.346l.07-.281h1.032zm-1.102-4.078v-3.704q-.457-.205-.808-.287-.352-.082-.762-.082-.955 0-1.453.65-.498.645-.498 1.782 0 1.148.398 1.77.404.615 1.266.615.48 0 .96-.205.481-.211.897-.54zm-5.982-.827q0 .51-.24 1.008-.235.498-.663.844-.468.375-1.095.586-.621.21-1.5.21-.944 0-1.7-.175-.75-.176-1.529-.521v-1.454h.082q.662.551 1.53.85.867.299 1.628.299 1.079 0 1.676-.404.604-.405.604-1.079 0-.58-.287-.855-.282-.275-.862-.428-.44-.117-.955-.193-.51-.076-1.084-.194-1.16-.246-1.722-.837-.557-.598-.557-1.553 0-1.096.926-1.793.926-.703 2.35-.703.92 0 1.687.176.767.175 1.36.433v1.371h-.083q-.498-.422-1.312-.697-.809-.281-1.659-.281-.931 0-1.5.386-.562.387-.562.997 0 .544.281.855.281.31.99.475.375.082 1.067.199.691.117 1.172.24.972.258 1.465.78.492.52.492 1.458z"
     id="path60" /><path
     fill="#0079d6"
     stroke="#0079d6"
     stroke-width=".095"
     d="M688.5 95.121c-11.441.088-22.674 1.934-33.7 5.54-5.08 1.666-9.597 3.946-13.55 6.839a16.966 16.966 0 0 0-4.8 5.44c-.8 1.42-1.206 3.214-1.22 5.38-.266 32.72-.343 65.444-.23 98.17 0 .054-.02.893-.06 2.52-.08 3.653.627 6.63 2.12 8.93 1.567 2.406 4.317 4.823 8.25 7.25 4.24 2.606 10.056 4.78 17.45 6.52 16.286 3.828 32.653 4.19 49.1 1.09a75.806 75.806 0 0 0 18.04-5.8 28.873 28.873 0 0 0 10.43-8.15c1.753-2.187 2.643-4.553 2.67-7.1.047-4.76.034-15.26-.04-31.5-26.456 4.747-21.77 4.567-23.96-.04l-9.9.04a.844.844 0 0 1-.85-.85l.06-28.83c0-.296.226-.537.5-.53l7.25.11a.53.53 0 0 1 .52.53l.23 21.5c.007.32.2.595.479.68.693.22 1.419.267 2.172.14 5.108-15.369 11.408-30.144 23.355-39.611v-4.707c.013.03.208-13.046.053-18.221-.093-3.147-.582-5.534-1.469-7.16-1.153-2.12-2.85-3.992-5.09-5.612-3.673-2.666-7.086-4.619-10.24-5.859a94.96 94.96 0 0 0-26.06-6.21 113.62 113.62 0 0 0-11.51-.499zm54.316 65.934v-2.653a272.21 272.21 0 0 1-1.55 2.287c-6.663 9.654-11.652 19.613-15.43 30.797-.335.993-.61 1.818-.61 1.834 0 .048.061.039 1.618-.224.817-.138 1.515-.287 1.552-.33.038-.044.361-.894.717-1.891 3.1-8.673 7.14-17.774 11.516-25.941.91-1.7 1.506-2.751 2.187-3.88zm-53.84-56.61c17.574-.008 31.625 2.986 37.253 7.94 3.787 3.334 2.494 6.604-3.842 9.713-5.076 2.49-11.946 4.156-20.9 5.074-5.332.546-15.633.73-20.643.369-19.331-1.395-32.875-6.932-30.748-12.572 2.317-6.146 18.455-10.514 38.88-10.524zm.565 55.285a17.612 17.612 0 0 1 4.209.51c5.627 1.367 8.93 5.456 9.91 12.27.987 6.86-1.367 12.333-7.06 16.42a.47.47 0 0 0-.04.74l8.03 7c.826.72.69 1.08-.41 1.08h-8.81c-.345 0-.661-.134-.87-.37l-5.5-6.17a1.576 1.576 0 0 0-.8-.5c-10.767-2.352-14.937-9.027-12.51-20.02 1-4.54 3.41-7.696 7.23-9.47a15.766 15.766 0 0 1 6.621-1.49zm-25.215.008c2.159.027 4.384.346 6.674.961.296.082.5.348.5.65v5.76a.81.81 0 0 1-1.2.711c-2.806-1.546-5.57-1.78-8.29-.7-.31.126-.54.369-.63.66-.326 1.093.083 1.947 1.23 2.56 1.7.913 3.407 1.81 5.12 2.69 1.927.98 3.347 2.348 4.26 4.101.854 1.64 1.15 3.483.89 5.53-.466 3.7-2.593 6.063-6.38 7.09-4.48 1.213-9.046 1.022-13.7-.571a.815.815 0 0 1-.55-.77v-6.43c0-.86.35-1.043 1.05-.55 1.86 1.32 4.326 2.133 7.4 2.44 1.7.173 2.55-.596 2.55-2.31 0-1.366-.997-2.32-2.99-2.86-3.247-.88-5.62-2.64-7.12-5.28-.993-1.74-1.356-3.597-1.09-5.57.294-2.187 1.217-3.964 2.77-5.33 1.74-1.547 4.196-2.45 7.37-2.71a23.147 23.147 0 0 1 2.136-.072z"
     id="path62" /><path
     d="M749.25 142.04q7.2 3.22 7.73 11.21.41 6.27-1.9 12.07-.3.77.38.68-.58 1.76-1.12 3.54-.55 1.82-1.37 3.43-3.01 5.89-6.01 11.78-1.36.73-1.67 2.25-.49 2.1-2.33 3.25-6.46 2.17-12.23 5.8-.74.46.05.41.23-.02.53-.15 4.45-1.87 9.74-2.92.84-.17.36.54-3.26 4.71-6.47 9.26-2 2.82-4.16 4.14-4.94 3.01-7.97 7.67-.93 1.44-.56-.24 6.41-28.83 21-54.47l6.32-9.24q1.34-1.96-.39-.36-4.09 3.79-6.97 8.56-16.24 22.73-21.21 51.25-2.58 14.82-.8 28.4a.49.35 80.7 0 1-.25.52q-.28.06-.35-.44-1.39-9.05-1.39-18.21 0-2.84-.81-5.92-.94-3.59-1.39-7.28-.1-.81-1-3.59-.85-2.62.34-5.72.21-.55.52-.05 1.51 2.42 2.53 4.94.67 1.64.6-.15-.06-1.44-2.56-7.54a1.46 1.46 0 0 1-.06-.94l.8-2.95q.38-1.4.99-.08 4.63 10 .83-1.28-.88-3.65.46-7.21 4.02-14.01 11.6-26.44 4.83-7.94 12.23-13.56.2-.16.46-.21 1.42.54 2.25-.75 1.62-.55 3.25 0z"
     id="path64" /></svg>
